<svg version="1.1" id="Layer_1" xmlns="http://www.w3.org/2000/svg" x="0" y="0" viewBox="0 0 337.9 65.1" xml:space="preserve">
  <style>
    .st1{fill:#1e1e1e}
  </style>
  <path d="M273.8 13.7a24.5 24.5 0 100 49 24.5 24.5 0 000-49zm0 38.8a14.3 14.3 0 110-28.6 14.3 14.3 0 010 28.6z" fill="#00a093"/>
  <path class="st1" d="M36.8.8l.2.6v8c0 .3 0 .5-.2.6l-.6.3h-12c-.1 0-.3 0-.3.3v36.8c0 .2 0 .4-.2.5-.1.2-.3.3-.6.3h-9.6c-.3 0-.4 0-.6-.3a.8.8 0 01-.2-.5V10.6c0-.2-.2-.3-.4-.3H.8L.2 10a.8.8 0 01-.2-.5V1.4C0 1 0 .9.2.8L.8.5h35.4l.6.3zM64.5 47.6l-8-18.1c-.1-.2-.3-.3-.5-.3h-4.4c-.3 0-.4.1-.4.3v17.9c0 .2 0 .4-.2.5l-.6.3h-9.7c-.2 0-.4 0-.5-.3a.8.8 0 01-.3-.5v-46c0-.3.1-.5.3-.6.1-.2.3-.3.5-.3H61c3 0 5.7.7 8 1.9 2.2 1.2 4 3 5.2 5.2 1.3 2.2 1.9 4.8 1.9 7.7 0 3-.8 5.7-2.3 8a12.7 12.7 0 01-6.2 4.7c-.3.1-.3.3-.2.5l9 18.7v.4c0 .4-.2.6-.7.6H65.4a1 1 0 01-1-.6zm-13.3-37v9.6c0 .2.1.4.4.4H59c1.7 0 3-.5 4-1.4 1.1-1 1.6-2.2 1.6-3.8a5 5 0 00-1.5-3.8c-1-1-2.4-1.4-4-1.4h-7.6c-.3 0-.4.1-.4.4zM111.3 47.5l-1.7-6c-.1-.2-.2-.3-.4-.3H93.7c-.1 0-.3 0-.3.2l-1.8 6.1c-.1.5-.5.7-1 .7H80.2l-.6-.3v-.7L94 1.2c.2-.4.4-.7.9-.7h12.9c.4 0 .7.3.8.7l14.7 46v.4c0 .4-.2.6-.7.6h-10.4c-.5 0-.8-.2-1-.7zm-15-15h10.2c.3 0 .4-.2.3-.4l-5.2-17.5c0-.2-.1-.3-.2-.3 0 0-.2.1-.2.3L96.1 32c0 .2 0 .4.3.4zM130.6 46.6a15.4 15.4 0 01-6.4-6 17.4 17.4 0 01-2.2-9V17a15.5 15.5 0 018.7-14.8c2.7-1.4 5.9-2.1 9.5-2.1 3.6 0 6.8.7 9.6 2 2.7 1.3 4.8 3.2 6.4 5.7 1.5 2.4 2.2 5.2 2.2 8.4 0 .2 0 .4-.2.5l-.6.2-9.6.6c-.6 0-.9-.2-.9-.7 0-2.2-.6-3.9-1.9-5.1-1.2-1.3-3-2-5-2-2.1 0-3.8.7-5 2a7 7 0 00-2 5v15.5c0 2.1.7 3.8 2 5 1.2 1.3 2.9 2 5 2 2 0 3.8-.7 5-2 1.3-1.2 2-2.9 2-5 0-.5.2-.7.8-.7l9.6.4.6.2c.2.2.2.3.2.5 0 3.2-.7 6-2.2 8.5a15.1 15.1 0 01-6.4 5.7c-2.8 1.3-6 2-9.6 2-3.6 0-6.8-.7-9.6-2zM161.4 48a.8.8 0 01-.3-.6v-46c0-.3.1-.5.3-.6.1-.2.3-.3.6-.3h9.6c.3 0 .5.1.6.3.2.1.3.3.3.6v17.9l.4-.1L186.6 1c.3-.3.6-.5 1-.5h11c.4 0 .6.2.6.5l-.1.6-14.7 19.6c-.1.2-.2.4-.1.5l15.4 25.5.1.5c0 .3-.2.5-.7.5h-10.8c-.5 0-.8-.2-1-.6l-10.7-18.1c-.1-.3-.3-.3-.5 0l-3.5 4.8-.2.4v12.7c0 .2 0 .4-.2.5-.2.2-.3.3-.6.3H162c-.3 0-.4-.1-.6-.3zM238.1.8c.2.1.3.3.3.6v8c0 .3-.1.5-.3.6-.1.2-.3.3-.6.3h-11.9c-.2 0-.3 0-.3.3v36.8c0 .2-.1.4-.3.5-.1.2-.3.3-.5.3h-9.7c-.2 0-.4 0-.6-.3a.8.8 0 01-.2-.5V10.6c0-.2-.1-.3-.4-.3h-11.5c-.2 0-.4-.1-.5-.3a.8.8 0 01-.3-.5V1.4c0-.3.1-.5.3-.6.1-.2.3-.3.5-.3h35.4c.3 0 .4.1.6.3zM326 47.6l-8-18.1c-.1-.2-.3-.3-.5-.3H313c-.2 0-.3.1-.3.3v17.9c0 .2 0 .4-.2.5l-.6.3h-9.7c-.2 0-.4 0-.6-.3a.8.8 0 01-.2-.5v-46c0-.3 0-.5.2-.6l.6-.3h20.2c3 0 5.7.7 8 1.9s4 3 5.2 5.2c1.2 2.2 1.9 4.8 1.9 7.7 0 3-.8 5.7-2.3 8A12.7 12.7 0 01329 28c-.2.1-.2.3-.1.5l9 18.7v.4c0 .4-.2.6-.7.6H327a1 1 0 01-1-.6zm-13.3-37v9.6c0 .2.1.4.3.4h7.6c1.7 0 3-.5 4-1.4 1.1-1 1.6-2.2 1.6-3.8 0-1.5-.5-2.8-1.5-3.8s-2.4-1.4-4.1-1.4H313c-.2 0-.3.1-.3.4z"/>
  <g>
    <path class="st1" d="M279.6 39A24 24 0 10272 46L290 63.5a5 5 0 007.3-6.9l-.2-.2-17.4-17.3zm-19.7-.4a13.5 13.5 0 110-27 13.5 13.5 0 010 27z"/>
  </g>
</svg>